<svg width="26" height="29" viewBox="0 0 26 29" fill="none" xmlns="http://www.w3.org/2000/svg">
<path d="M7.39323 26.9306L5.86258 28.6589L0.400391 22.6492L4.31379 18.2626C5.10632 17.3676 6.10638 16.7433 7.19906 16.4614C8.29173 16.1795 9.43268 16.2513 10.4908 16.6688L11.3507 17.008H16.6264C16.8495 17.0079 17.0704 17.0584 17.2759 17.1565C17.4814 17.2547 17.6673 17.3984 17.8226 17.5793C17.978 17.7601 18.0995 17.9744 18.1801 18.2093C18.2607 18.4443 18.2986 18.6951 18.2917 18.9469C18.2664 19.4447 18.0717 19.9121 17.7483 20.2516C17.425 20.5911 16.9979 20.7764 16.5564 20.7688H13.3915C13.2198 20.7688 13.0551 20.8458 12.9337 20.983C12.8123 21.1201 12.744 21.306 12.744 21.4999C12.744 21.6938 12.8123 21.8798 12.9337 22.0169C13.0551 22.154 13.2198 22.231 13.3915 22.231H16.5668C17.3413 22.2353 18.0877 21.9031 18.6513 21.3032C19.2149 20.7033 19.5526 19.8816 19.5944 19.0083C19.5944 18.9937 19.5944 18.9791 19.5944 18.9615L22.5314 15.227C22.8298 14.8361 23.25 14.59 23.7049 14.5399C24.1597 14.4898 24.6141 14.6395 24.9738 14.958C25.1517 15.1244 25.2983 15.3293 25.405 15.5608C25.5117 15.7922 25.5762 16.0454 25.5948 16.3054C25.6134 16.5655 25.5856 16.8271 25.5132 17.0748C25.4408 17.3226 25.3252 17.5514 25.1732 17.7479L19.3096 25.3514C18.9225 25.8523 18.4448 26.2535 17.9086 26.528C17.3724 26.8024 16.7903 26.9437 16.2016 26.9423L7.39323 26.9306ZM19.5012 10.3988C19.5012 10.0304 19.3716 9.67705 19.1409 9.41654C18.9102 9.15604 18.5973 9.00968 18.271 9.00968H16.458V6.96258C16.4435 6.60558 16.3077 6.26862 16.0788 6.02178C15.8499 5.77494 15.5456 5.6372 15.2291 5.6372C14.9126 5.6372 14.6083 5.77494 14.3794 6.02178C14.1505 6.26862 14.0147 6.60558 14.0002 6.96258V9.00968H12.1872C12.0211 9.00107 11.8551 9.03058 11.6994 9.09643C11.5436 9.16228 11.4013 9.2631 11.2811 9.39281C11.1608 9.52251 11.0651 9.6784 10.9997 9.85105C10.9343 10.0237 10.9006 10.2095 10.9006 10.3973C10.9006 10.5851 10.9343 10.7709 10.9997 10.9436C11.0651 11.1163 11.1608 11.2721 11.2811 11.4018C11.4013 11.5316 11.5436 11.6324 11.6994 11.6982C11.8551 11.7641 12.0211 11.7936 12.1872 11.785H14.0002V13.8321C14.0147 14.1891 14.1505 14.526 14.3794 14.7729C14.6083 15.0197 14.9126 15.1575 15.2291 15.1575C15.5456 15.1575 15.8499 15.0197 16.0788 14.7729C16.3077 14.526 16.4435 14.1891 16.458 13.8321V11.785H18.271C18.5968 11.785 18.9093 11.639 19.14 11.3791C19.3706 11.1193 19.5005 10.7667 19.5012 10.3988ZM7.70661 2.70169V4.21069H6.37279C6.13238 4.21069 5.90181 4.31853 5.73182 4.51048C5.56182 4.70244 5.46632 4.96278 5.46632 5.23424C5.46632 5.50571 5.56182 5.76605 5.73182 5.958C5.90181 6.14996 6.13238 6.25779 6.37279 6.25779H7.7092V7.7668C7.7092 8.03826 7.80471 8.29861 7.97471 8.49056C8.1447 8.68251 8.37527 8.79035 8.61568 8.79035C8.8561 8.79035 9.08666 8.68251 9.25666 8.49056C9.42666 8.29861 9.52216 8.03826 9.52216 7.7668V6.25195H10.8508C11.0912 6.25195 11.3218 6.14411 11.4918 5.95215C11.6618 5.7602 11.7573 5.49986 11.7573 5.22839C11.7573 4.95693 11.6618 4.69659 11.4918 4.50463C11.3218 4.31268 11.0912 4.20484 10.8508 4.20484H9.51439V2.70169C9.51439 2.43022 9.41889 2.16988 9.24889 1.97793C9.07889 1.78597 8.84833 1.67814 8.60791 1.67814C8.3675 1.67814 8.13693 1.78597 7.96694 1.97793C7.79694 2.16988 7.70143 2.43022 7.70143 2.70169H7.70661ZM19.1412 -0.000488281C18.9351 -0.000488281 18.7375 0.0919444 18.5918 0.256476C18.4461 0.421007 18.3642 0.644159 18.3642 0.876841V2.17529H17.2143C17.0082 2.17529 16.8106 2.26772 16.6649 2.43225C16.5192 2.59678 16.4373 2.81994 16.4373 3.05262C16.4373 3.2853 16.5192 3.50845 16.6649 3.67298C16.8106 3.83751 17.0082 3.92995 17.2143 3.92995H18.3642V5.22839C18.3642 5.46108 18.4461 5.68423 18.5918 5.84876C18.7375 6.01329 18.9351 6.10572 19.1412 6.10572C19.3473 6.10572 19.5449 6.01329 19.6906 5.84876C19.8363 5.68423 19.9182 5.46108 19.9182 5.22839V3.92995H21.0681C21.1702 3.92995 21.2712 3.90725 21.3655 3.86316C21.4597 3.81907 21.5454 3.75445 21.6175 3.67298C21.6897 3.59152 21.7469 3.4948 21.786 3.38836C21.825 3.28191 21.8451 3.16783 21.8451 3.05262C21.8451 2.93741 21.825 2.82332 21.786 2.71688C21.7469 2.61044 21.6897 2.51372 21.6175 2.43225C21.5454 2.35078 21.4597 2.28616 21.3655 2.24207C21.2712 2.19798 21.1702 2.17529 21.0681 2.17529H19.9182V0.876841C19.9182 0.644159 19.8363 0.421007 19.6906 0.256476C19.5449 0.0919444 19.3473 -0.000488281 19.1412 -0.000488281Z" fill="white"/>
</svg>
