<svg width="28" height="27" viewBox="0 0 28 27" fill="none" xmlns="http://www.w3.org/2000/svg">
<path d="M18.6667 5.30732C18.6667 6.71491 18.175 8.06485 17.2998 9.06017C16.4247 10.0555 15.2377 10.6146 14 10.6146C12.7623 10.6146 11.5753 10.0555 10.7002 9.06017C9.825 8.06485 9.33333 6.71491 9.33333 5.30732C9.33333 3.89973 9.825 2.5498 10.7002 1.55448C11.5753 0.559163 12.7623 0 14 0C15.2377 0 16.4247 0.559163 17.2998 1.55448C18.175 2.5498 18.6667 3.89973 18.6667 5.30732ZM26.4444 8.84554C26.4444 9.78393 26.1167 10.6839 25.5332 11.3474C24.9498 12.011 24.1585 12.3838 23.3333 12.3838C22.5082 12.3838 21.7169 12.011 21.1334 11.3474C20.55 10.6839 20.2222 9.78393 20.2222 8.84554C20.2222 7.90715 20.55 7.00719 21.1334 6.34364C21.7169 5.6801 22.5082 5.30732 23.3333 5.30732C24.1585 5.30732 24.9498 5.6801 25.5332 6.34364C26.1167 7.00719 26.4444 7.90715 26.4444 8.84554ZM20.2222 21.2293C20.2222 19.3525 19.5667 17.5526 18.3998 16.2255C17.2329 14.8984 15.6502 14.1529 14 14.1529C12.3498 14.1529 10.7671 14.8984 9.60023 16.2255C8.43333 17.5526 7.77778 19.3525 7.77778 21.2293V26.5366H20.2222V21.2293ZM7.77778 8.84554C7.77778 9.78393 7.45 10.6839 6.86656 11.3474C6.28311 12.011 5.49179 12.3838 4.66667 12.3838C3.84155 12.3838 3.05023 12.011 2.46678 11.3474C1.88333 10.6839 1.55556 9.78393 1.55556 8.84554C1.55556 7.90715 1.88333 7.00719 2.46678 6.34364C3.05023 5.6801 3.84155 5.30732 4.66667 5.30732C5.49179 5.30732 6.28311 5.6801 6.86656 6.34364C7.45 7.00719 7.77778 7.90715 7.77778 8.84554ZM23.3333 26.5366V21.2293C23.3356 19.4306 22.934 17.6611 22.1667 16.0883C22.8563 15.8875 23.5772 15.8686 24.2742 16.0329C24.9713 16.1972 25.6261 16.5404 26.1888 17.0364C26.7515 17.5323 27.2072 18.1678 27.5211 18.8944C27.835 19.6211 27.9988 20.4197 28 21.2293V26.5366H23.3333ZM5.83333 16.0883C5.06605 17.6611 4.66449 19.4306 4.66667 21.2293V26.5366H4.13342e-07V21.2293C-0.000299395 20.4191 0.162499 19.6196 0.475918 18.8921C0.789337 18.1645 1.24506 17.5282 1.80815 17.0319C2.37125 16.5357 3.02677 16.1926 3.72448 16.029C4.42219 15.8655 5.14357 15.8857 5.83333 16.0883Z" fill="white"/>
</svg>
