<svg width="28" height="28" viewBox="0 0 28 28" fill="none" xmlns="http://www.w3.org/2000/svg">
<path fill-rule="evenodd" clip-rule="evenodd" d="M13.9992 12.6002C15.1131 12.6002 16.1814 12.1577 16.9691 11.37C17.7567 10.5824 18.1992 9.5141 18.1992 8.4002C18.1992 7.28629 17.7567 6.218 16.9691 5.43035C16.1814 4.64269 15.1131 4.2002 13.9992 4.2002C12.8853 4.2002 11.817 4.64269 11.0294 5.43035C10.2417 6.218 9.79922 7.28629 9.79922 8.4002C9.79922 9.5141 10.2417 10.5824 11.0294 11.37C11.817 12.1577 12.8853 12.6002 13.9992 12.6002ZM4.19922 25.2002C4.19922 23.9132 4.4527 22.6389 4.9452 21.4499C5.4377 20.2609 6.15956 19.1806 7.06957 18.2705C7.97959 17.3605 9.05993 16.6387 10.2489 16.1462C11.4379 15.6537 12.7123 15.4002 13.9992 15.4002C15.2862 15.4002 16.5605 15.6537 17.7495 16.1462C18.9385 16.6387 20.0189 17.3605 20.9289 18.2705C21.8389 19.1806 22.5607 20.2609 23.0532 21.4499C23.5457 22.6389 23.7992 23.9132 23.7992 25.2002H4.19922Z" fill="white"/>
<path d="M14.0008 2.7998L23.7003 9.0998H4.3013L14.0008 2.7998Z" fill="white"/>
</svg>
