<svg width="20" height="16" viewBox="0 0 20 16" fill="none" xmlns="http://www.w3.org/2000/svg">
<path fill-rule="evenodd" clip-rule="evenodd" d="M12.008 15.003L12.014 13C12.014 12.7341 12.1196 12.4791 12.3076 12.2911C12.4956 12.1031 12.7506 11.9975 13.0165 11.9975C13.2824 11.9975 13.5374 12.1031 13.7254 12.2911C13.9134 12.4791 14.019 12.7341 14.019 13V14.977C14.019 15.458 14.019 15.699 14.173 15.847C14.328 15.994 14.563 15.984 15.036 15.964C16.899 15.885 18.044 15.634 18.85 14.828C19.66 14.022 19.911 12.877 19.99 11.011C20.005 10.641 20.013 10.455 19.944 10.332C19.874 10.209 19.599 10.055 19.047 9.746C18.7361 9.57266 18.4771 9.31942 18.2968 9.01247C18.1165 8.70552 18.0214 8.35599 18.0214 8C18.0214 7.64401 18.1165 7.29448 18.2968 6.98753C18.4771 6.68058 18.7361 6.42734 19.047 6.254C19.599 5.946 19.875 5.791 19.944 5.668C20.013 5.545 20.005 5.36 19.989 4.989C19.911 3.123 19.659 1.979 18.85 1.172C17.973 0.296 16.695 0.0750001 14.528 0.0190001C14.4616 0.0172639 14.3956 0.0288362 14.3338 0.0530343C14.272 0.0772324 14.2157 0.113566 14.1681 0.159891C14.1206 0.206215 14.0828 0.261593 14.057 0.322755C14.0313 0.383917 14.018 0.449624 14.018 0.516V3C14.018 3.26588 13.9124 3.52087 13.7244 3.70887C13.5364 3.89688 13.2814 4.0025 13.0155 4.0025C12.7496 4.0025 12.4946 3.89688 12.3066 3.70887C12.1186 3.52087 12.013 3.26588 12.013 3L12.006 0.499C12.0057 0.366565 11.9529 0.239645 11.8592 0.146093C11.7655 0.0525409 11.6384 -2.6487e-07 11.506 0H7.994C4.214 0 2.324 -1.19209e-07 1.149 1.172C0.339002 1.978 0.0880023 3.123 0.00900233 4.989C-0.00599767 5.359 -0.0139977 5.545 0.0550023 5.668C0.125002 5.791 0.400002 5.946 0.952002 6.254C1.26294 6.42734 1.52194 6.68058 1.70224 6.98753C1.88255 7.29448 1.97761 7.64401 1.97761 8C1.97761 8.35599 1.88255 8.70552 1.70224 9.01247C1.52194 9.31942 1.26294 9.57266 0.952002 9.746C0.400002 10.055 0.124002 10.209 0.0550023 10.332C-0.0139977 10.455 -0.00599774 10.64 0.0100023 11.01C0.0880023 12.877 0.340002 14.022 1.149 14.828C2.324 16 4.214 16 7.995 16H11.005C11.477 16 11.712 16 11.859 15.854C12.006 15.708 12.007 15.474 12.008 15.003ZM14.018 9V7C14.018 6.73412 13.9124 6.47913 13.7244 6.29113C13.5364 6.10312 13.2814 5.9975 13.0155 5.9975C12.7496 5.9975 12.4946 6.10312 12.3066 6.29113C12.1186 6.47913 12.013 6.73412 12.013 7V9C12.013 9.26601 12.1187 9.52113 12.3068 9.70923C12.4949 9.89733 12.75 10.003 13.016 10.003C13.282 10.003 13.5371 9.89733 13.7252 9.70923C13.9133 9.52113 14.018 9.26601 14.018 9Z" fill="#1DA599"/>
</svg>
